# xmcd
# 
# Track frame offsets:
#     150
#     23935
#     36470
#     47830
#     60780
#     84071
#     94487
#     114712
#     132084
#     144452
#     168682
#     180798
#     198090
#     217460
#     238587
#     259918
#     283971
#     295273
#     309945
#     322121
#     338643
# 
# Disc length: 4686
# 
# Revision: 2
# Processed by: cddbd v1.5.2PL0 Copyright (c) Steve Scherf et al.
# Submitted via: fre:ac v1.0.31
# 
DISCID=3b124c15
DTITLE=Pentangle - Sweet Child Disc2
DYEAR=2018
DGENRE=Folk
TTITLE0=Sweet Child
TTITLE1=I Loved A Lass
TTITLE2=Three Part Thing
TTITLE3=Sovay
TTITLE4=In Time
TTITLE5=In Your Mind
TTITLE6=I've Got A Feeling
TTITLE7=The Trees They Do Grow High
TTITLE8=Moondog
TTITLE9=Hole In The Coal
TTITLE10=Hole In The Coal [Alternative Version]
TTITLE11=The Trees They Do Grow High [Alternative Version]
TTITLE12=Haitian Fight Song [Studio Version]
TTITLE13=In Time [Alternative Version]
TTITLE14=A Woman Like You [Unabridged Trio Version]
TTITLE15=I've Got A Woman [Trio Mix]
TTITLE16=I Am Lonely [Jansch Solo Mix]
TTITLE17=Poison
TTITLE18=Blues
TTITLE19=Sally Go Round The Roses [Alternative Version 2]
TTITLE20=Moondog [Full Band Version]
EXTD=
EXTT0=
EXTT1=
EXTT2=
EXTT3=
EXTT4=
EXTT5=
EXTT6=
EXTT7=
EXTT8=
EXTT9=
EXTT10=
EXTT11=
EXTT12=
EXTT13=
EXTT14=
EXTT15=
EXTT16=
EXTT17=
EXTT18=
EXTT19=
EXTT20=
PLAYORDER=
